<svg aria-hidden="true" style="position:absolute;width:0;height:0;overflow:hidden" 
xmlns="http://www.w3.org/2000/svg"><defs>
<symbol id="crayon" viewBox="0 0 24 32"><path fill="#ffecba" style="fill:var(--color1, #ffecba)" 
d="m.806 21.576.945 9.608 8.794-3.986S8.674 20.87.807 21.576z"/>
<path fill="#393939" style="fill:var(--color2, #393939)" d="M1.25 28.461s1.384.155 3.143 1.816-2.283 1.72-2.283 1.72-2.088-.928-2.112-1.127.5-2.383.5-2.383z"/>
<path fill="#e88f8d" style="fill:var(--color3, #e88f8d)" 
d="M19.193.751c1.692.99 2.811 2.799 2.811 4.869 0 1.035-.28 2.005-.768 2.838l.014-.027-1.316 2.279c-.983 1.722-2.808 2.864-4.899 2.864a5.622 5.622 0 0 1-4.824-8.512l-.014.025 1.316-2.279c.99-1.692 2.799-2.811 4.869-2.811 1.035 0 2.005.28 2.838.768l-.027-.014z"/>
<path fill="#d97475" style="fill:var(--color4, #d97475)" d="m19.416.603 4.973 2.871-3.23 5.594-4.973-2.871z"/>
<path fill="#daeaf2" style="fill:var(--color5, #daeaf2)" d="M11.453 2.913c3.737 1.402 6.963 3.303 9.79 5.665l-.053-.043-2.991 5.18-9.738-5.622z"/>
<path fill="#bedae8" style="fill:var(--color6, #bedae8)" d="m16.904 4.955 5.18 2.991-3.11 5.387-5.18-2.991z"/>
<path fill="#f1c40f" style="fill:var(--color7, #f1c40f)" d="M8.951 7.188c3.737 1.402 6.963 3.303 9.79 5.665l-.053-.043-8.144 14.387a7.215 7.215 0 0 0-2.005-1.711l-.035-.018c-1.57-.907-3.52.177-3.52.177s.022-2.196-1.69-3.187a6.984 6.984 0 0 0-2.448-.878l-.04-.005z"/>
<path fill="#f39c12" style="fill:var(--color8, #f39c12)" d="m15.588 7.456 5.594 3.23-10.527 18.235-5.594-3.23z"/></symbol>
<symbol id="flag" viewBox="0 0 31 32"><path fill="#d84848" style="fill:var(--color9, #d84848)" d="M30.782 3.613H14.266v17.032h16.516l-5.202-8.516z"/><path fill="#aa1f1f" style="fill:var(--color10, #aa1f1f)" d="M14.266 17.226v3.42l4.387-2.839z"/><path fill="#f57b71" style="fill:var(--color11, #f57b71)" d="M18.653 17.806H6.266L1.532 1.29h17.121v16.516z"/><path fill="#daeaf2" style="fill:var(--color5, #daeaf2)" d="M.959.046a1.29 1.29 0 0 1 1.578.903l.002.009 7.882 29.415a1.29 1.29 0 1 1-2.491.674l-.002-.009L.046 1.624A1.29 1.29 0 0 1 .949.047L.958.045z"/></symbol>
<symbol id="gears" viewBox="0 0 40 32"><path fill="#487fbc" style="fill:var(--color12, #487fbc)" d="M24.033 14.004a.935.935 0 0 0 .73-.878v-1.983a.932.932 0 0 0-.724-.878l-.006-.001-1.589-.297a1.403 1.403 0 0 1-.961-.832l-.003-.009-.46-1.123a1.394 1.394 0 0 1 .09-1.284l-.003.006.912-1.332a.931.931 0 0 0-.106-1.139l-1.401-1.401a.929.929 0 0 0-1.142-.104l.004-.002-1.315.9a1.376 1.376 0 0 1-1.283.079l.009.003-1.15-.479a1.407 1.407 0 0 1-.84-.956l-.002-.01-.291-1.551a.935.935 0 0 0-.878-.73h-1.983a.932.932 0 0 0-.878.724l-.001.006-.289 1.541a1.397 1.397 0 0 1-.832.96l-.009.003-1.168.482a1.391 1.391 0 0 1-1.282-.088l.006.003-1.297-.887a.928.928 0 0 0-1.139.107L3.351 4.255a.93.93 0 0 0-.104 1.143l-.002-.004.889 1.3a1.386 1.386 0 0 1 .081 1.285l.004-.009-.479 1.164c-.168.418-.521.73-.954.84l-.01.002-1.546.29a.935.935 0 0 0-.73.878v1.983a.932.932 0 0 0 .724.878l.006.001 1.546.29c.443.112.796.424.961.832l.003.009.479 1.164a1.389 1.389 0 0 1-.088 1.282l.003-.006-.889 1.299a.929.929 0 0 0 .106 1.139l-.001-.001 1.401 1.399a.93.93 0 0 0 1.143.105l-.004.002 1.297-.886a1.39 1.39 0 0 1 1.285-.081l-.009-.003 1.168.48c.418.168.73.52.84.953l.002.01.289 1.542a.935.935 0 0 0 .878.73h1.983a.932.932 0 0 0 .878-.724l.001-.006.291-1.552a1.4 1.4 0 0 1 .832-.962l.009-.003 1.15-.48a1.374 1.374 0 0 1 1.281.085l-.006-.003 1.316.901a.926.926 0 0 0 1.139-.107l1.401-1.399a.93.93 0 0 0 .104-1.143l.002.004-.912-1.333a1.391 1.391 0 0 1-.084-1.285l-.004.009.46-1.123c.168-.418.521-.73.954-.84l.01-.002zm-11.422 1.342h-.009a3.212 3.212 0 1 1 3.212-3.212v.004a3.208 3.208 0 0 1-3.202 3.208zm24.732 8.041c.094-.458.378-.836.765-1.053l.008-.004 1.173-.562a.934.934 0 0 0 .477-1.043l.001.006-.466-1.739a.935.935 0 0 0-.892-.662l-.042.001h.002l-1.449.111-.061.001c-.435 0-.827-.184-1.101-.479l-.001-.001-.248-.248a5.417 5.417 0 0 0-.683-.593l-.015-.011a1.418 1.418 0 0 1-.558-1.128v-.031.002l.077-1a.932.932 0 0 0-.654-.931l-1.745-.467a.932.932 0 0 0-1.037.473l-.002.005-.535 1.116a1.725 1.725 0 0 1-1.036.823l-.012.003-.976.314a1.508 1.508 0 0 1-1.303-.133l.007.004-.87-.595a.928.928 0 0 0-1.139.107l-1.272 1.272a.929.929 0 0 0-.104 1.142l-.002-.004.702 1.026a1.688 1.688 0 0 1 .179 1.328l.003-.012-.186.753a1.596 1.596 0 0 1-.776 1.051l-.008.004-1.031.493a.938.938 0 0 0-.476 1.046l-.001-.006.465 1.738a.939.939 0 0 0 .895.662l.04-.001h-.002l1.112-.087h.027c.463 0 .876.21 1.15.54l.002.002c.133.163.269.309.412.446l.002.002c.12.126.244.244.375.356l.007.006c.33.278.539.693.539 1.155v.029-.001l-.084 1.094-.001.041a.93.93 0 0 0 .655.888l.007.002 1.738.465a.933.933 0 0 0 1.036-.473l.002-.005.459-.956a1.573 1.573 0 0 1 1.046-.778l.01-.002 1.033-.265a1.642 1.642 0 0 1 1.32.172l-.007-.004 1.264.866a.926.926 0 0 0 1.139-.107l1.272-1.273a.926.926 0 0 0 .104-1.14l.002.004-.857-1.253a1.627 1.627 0 0 1-.166-1.323l-.003.012zm-5.043.47a2.075 2.075 0 1 1-.004-2.931c.376.375.609.894.609 1.467 0 .572-.232 1.089-.606 1.464z"/><path fill="#daeaf2" style="fill:var(--color5, #daeaf2)" d="M33.051 24.607a3.137 3.137 0 1 1-.005-4.432c.568.568.919 1.352.919 2.218 0 .864-.349 1.646-.914 2.213zm-20.44-7.897H12.6a4.575 4.575 0 1 1 4.575-4.575v.006a4.57 4.57 0 0 1-4.564 4.569z"/><path fill="#00234a" style="fill:var(--color13, #00234a)" opacity=".2" d="m3.93 3.435 17.33 17.33s-9.16 9.16-17.578 0 .248-17.33.248-17.33zm20.054 12.626L37.6 29.182s-6.427 6.179-12.874.248c-6.189-5.694-.743-13.369-.743-13.369z"/></symbol>
<symbol id="mail" viewBox="0 0 43 32"><path d="M1.632 3.002c1.305.724 16.718 10.747 17.391 11.122.711.338 1.545.536 2.425.536s1.714-.198 2.46-.551l-.035.015c.673-.375 16.08-10.399 17.391-11.122S43.81 0 41.409 0H1.476c-2.388 0-1.152 2.278.155 3.002zm40.201 5.521c-1.485.804-17.037 10.64-17.956 11.122-.711.338-1.545.536-2.425.536s-1.714-.198-2.46-.551l.035.015C18.118 19.163 2.566 9.327 1.071 8.523c-1.045-.563-1.034.08-1.034.59v20.261a3.183 3.183 0 0 0 2.635 2.651l.018.002h37.513a3.186 3.186 0 0 0 2.654-2.635l.002-.018V9.113c0-.509.008-1.152-1.048-.59z"/></symbol><symbol id="rocket" viewBox="0 0 26 32"><path fill="#3a6da5" style="fill:var(--color15, #3a6da5)" d="M10.582 26.467c.222.192.364.472.372.785v.001c.02.52-.121 3.872-.121 3.872s3.178-3.745 4.097-4.908a2.87 2.87 0 0 0 .565-1.717c0-.888-.4-1.682-1.03-2.213l-.004-.004c-1.361-1.168-3.879 4.183-3.879 4.183z"/><path fill="#487fbc" style="fill:var(--color12, #487fbc)" d="M4.163 22.76a1.078 1.078 0 0 0-.874.074l.006-.003c-.458.244-3.291 2.044-3.291 2.044s1.652-4.626 2.2-6.004a2.897 2.897 0 0 1 3.661-1.553l-.02-.007c1.692.595-1.683 5.45-1.683 5.45z"/><path fill="#d97475" style="fill:var(--color4, #d97475)" d="m5.731 23.857 3.053 1.762a.772.772 0 1 1-.774 1.333l.003.002-3.053-1.762a.77.77 0 0 1 .775-1.332l-.004-.002z"/><path fill="#f1c40f" style="fill:var(--color7, #f1c40f)" d="M6.553 26.619a1.764 1.764 0 0 1 .639 2.415l.005-.008c-.485.844-3.76 2.978-3.76 2.978s.222-3.897.709-4.74a1.763 1.763 0 0 1 2.416-.641l-.008-.005z"/><path fill="#daeaf2" style="fill:var(--color5, #daeaf2)" d="M20.142 3.683a3.326 3.326 0 0 1-.201-.776l-.002-.017c.022-.037.031-.066.018-.064h-.007a.183.183 0 0 1-.115-.041c-.011-.032-.04-.027-.062.012a3.215 3.215 0 0 1-.767.236l-.02.003S11.252 4.79 7.794 11.123c-3.848 7.046-3.557 11.845-3.557 11.845.017.48.268.898.642 1.144l.005.003 1.273.733a336.813 336.813 0 0 0 1.49.862l1.352.78a1.466 1.466 0 0 0 1.332-.001l-.008.004s4.088-2.282 8.267-9.137c3.762-6.174 1.551-13.673 1.551-13.673z"/><path fill="#bedae8" style="fill:var(--color6, #bedae8)" d="m20.128 2.664 5.533 3.194L12.224 29.13l-5.533-3.194z"/><path fill="#d84848" style="fill:var(--color9, #d84848)" d="m20.461 2.088 3.436 1.978-2.864 4.96a23.716 23.716 0 0 0-3.116-2.295l-.102-.059z"/><path fill="#f57b71" style="fill:var(--color11, #f57b71)" d="M17.815 6.672c-.053-.03-.104-.061-.154-.091a20.87 20.87 0 0 0-3.533-1.584l-.153-.046L16.834 0l3.626 2.088z"/><path fill="#fff" style="fill:var(--color14, #fff)" d="M15.624 10.246a3.632 3.632 0 0 1 1.814 3.141 3.627 3.627 0 1 1-6.759-1.831l-.009.017a3.634 3.634 0 0 1 4.971-1.318l-.017-.009z"/><path fill="#5ad2eb" style="fill:var(--color16, #5ad2eb)" d="M15.188 11.004a2.753 2.753 0 1 1-3.754.995l-.007.013a2.757 2.757 0 0 1 3.775-1.001l-.013-.007z"/></symbol><symbol id="facebook" viewBox="0 0 32 32"><path d="M19 6h5V0h-5c-3.86 0-7 3.14-7 7v3H8v6h4v16h6V16h5l1-6h-6V7c0-.542.458-1 1-1z"/></symbol><symbol id="twitter" viewBox="0 0 32 32"><path d="M32 7.075a12.941 12.941 0 0 1-3.769 1.031 6.601 6.601 0 0 0 2.887-3.631 13.21 13.21 0 0 1-4.169 1.594A6.565 6.565 0 0 0 22.155 4a6.563 6.563 0 0 0-6.563 6.563c0 .512.056 1.012.169 1.494A18.635 18.635 0 0 1 2.23 5.195a6.56 6.56 0 0 0-.887 3.3 6.557 6.557 0 0 0 2.919 5.463 6.565 6.565 0 0 1-2.975-.819v.081a6.565 6.565 0 0 0 5.269 6.437 6.574 6.574 0 0 1-2.968.112 6.588 6.588 0 0 0 6.131 4.563 13.17 13.17 0 0 1-9.725 2.719 18.568 18.568 0 0 0 10.069 2.95c12.075 0 18.681-10.006 18.681-18.681 0-.287-.006-.569-.019-.85A13.216 13.216 0 0 0 32 7.076z"/></symbol><symbol id="linkedin" viewBox="0 0 32 32"><path d="M12 12h5.535v2.837h.079c.77-1.381 2.655-2.837 5.464-2.837C28.92 12 30 15.637 30 20.367V30h-5.769v-8.54c0-2.037-.042-4.657-3.001-4.657-3.005 0-3.463 2.218-3.463 4.509V30H12V12zM2 12h6v18H2V12zM8 7a3 3 0 1 1-6 0 3 3 0 0 1 6 0z"/></symbol></defs></svg>